<?xml version="1.0" encoding="iso-8859-1"?>
<!-- Generator: Adobe Illustrator 19.0.0, SVG Export Plug-In . SVG Version: 6.00 Build 0)  -->
<svg version="1.1" id="Capa_1" xmlns="http://www.w3.org/2000/svg" xmlns:xlink="http://www.w3.org/1999/xlink" x="0px" y="0px"
	 viewBox="0 0 512.003 512.003" style="enable-background:new 0 0 512.003 512.003;" xml:space="preserve">
<path style="fill:#4CAF50;" d="M480.001,16.002h-224c-17.673,0-32,14.327-32,32v128c0,17.673,14.327,32,32,32h32v48
	c0.005,6.884,4.413,12.993,10.944,15.168c1.627,0.558,3.336,0.84,5.056,0.832c5.036,0,9.778-2.371,12.8-6.4l43.2-57.6h120
	c17.478,0.195,31.805-13.814,32-31.292c0.003-0.236,0.003-0.472,0-0.708v-128c0.195-17.478-13.814-31.805-31.292-32
	C480.473,15.999,480.237,15.999,480.001,16.002z"/>
<path d="M304.001,272.002c-1.72,0.008-3.429-0.274-5.056-0.832c-6.531-2.175-10.939-8.284-10.944-15.168v-48h-32
	c-17.673,0-32-14.327-32-32v-128c0-17.673,14.327-32,32-32h224c17.673,0,32,14.327,32,32v128c0,17.673-14.327,32-32,32h-120
	l-43.2,57.6C313.78,269.631,309.037,272.002,304.001,272.002z M256.001,48.002v128h48c8.837,0,16,7.163,16,16v16l19.2-25.6
	c3.022-4.029,7.764-6.4,12.8-6.4h128v-128H256.001z"/>
<path style="fill:#2196F3;" d="M143.681,202.562l-86.72,41.92c-27.032-56.321-41.032-118.008-40.96-180.48h96
	C111.855,112,122.691,159.396,143.681,202.562z"/>
<path d="M56.961,260.482c-6.147-0.012-11.744-3.544-14.4-9.088C14.4,192.947-0.152,128.879,0.001,64.002c0-8.837,7.163-16,16-16h96
	c8.837,0,16,7.163,16,16c-0.206,45.565,10.076,90.565,30.048,131.52c3.888,7.935,0.608,17.52-7.327,21.408
	c-0.022,0.011-0.043,0.021-0.065,0.032l-86.656,41.92C61.811,259.956,59.4,260.504,56.961,260.482z M32.321,80.002
	c1.845,49.246,12.837,97.719,32.416,142.944l57.888-27.968c-15.638-36.421-24.539-75.377-26.272-114.976H32.321z"/>
<path style="fill:#2196F3;" d="M432.001,384.002v96c-62.472,0.072-124.159-13.928-180.48-40.96l41.92-86.72
	C336.607,373.312,384.003,384.148,432.001,384.002z"/>
<path d="M432.001,496.002c-64.877,0.153-128.945-14.398-187.392-42.56c-7.973-3.81-11.348-13.361-7.539-21.335
	c0.017-0.035,0.034-0.07,0.051-0.105l41.92-86.72c3.853-7.953,13.422-11.276,21.375-7.424c0.022,0.01,0.043,0.021,0.065,0.032
	c40.949,19.995,85.95,30.298,131.52,30.112c8.837,0,16,7.163,16,16v96C448.001,488.839,440.838,496.002,432.001,496.002z
	 M273.057,431.266c45.225,19.579,93.698,30.571,142.944,32.416v-64c-39.599-1.733-78.555-10.634-114.976-26.272L273.057,431.266z"/>
<path d="M244.577,453.442C156.435,410.74,85.263,339.568,42.561,251.426l28.8-13.888c39.572,81.621,105.483,147.532,187.104,187.104
	L244.577,453.442z"/>
<g>
</g>
<g>
</g>
<g>
</g>
<g>
</g>
<g>
</g>
<g>
</g>
<g>
</g>
<g>
</g>
<g>
</g>
<g>
</g>
<g>
</g>
<g>
</g>
<g>
</g>
<g>
</g>
<g>
</g>
</svg>
